<svg width="45" height="45" viewBox="0 0 45 45" fill="none" xmlns="http://www.w3.org/2000/svg">
<path fill-rule="evenodd" clip-rule="evenodd" d="M41.841 12.5473V22.9492C41.8422 22.9666 41.8501 22.9802 41.8579 22.9936C41.8663 23.0079 41.8747 23.0221 41.8747 23.041C41.8747 23.0585 41.8665 23.0719 41.8582 23.0856C41.8503 23.0987 41.8422 23.1121 41.841 23.1295V33.4704C41.841 33.9028 41.52 34.2506 41.1268 34.2506H38.7437C38.3504 34.2506 38.0322 33.9028 38.0322 33.4704C38.0322 33.0388 38.3504 32.6895 38.7437 32.6895H40.4152V23.8197H33.9773C33.584 23.8197 33.2657 23.4707 33.2657 23.041V13.3258H27.5395V27.6449C27.5395 28.0741 27.2212 28.4257 26.8279 28.4257C26.4345 28.4257 26.1137 28.0741 26.1137 27.6449V12.5473V8.05611H3.56276V32.6895H5.26031C5.65357 32.6895 5.97448 33.0388 5.97448 33.4704C5.97448 33.9028 5.65357 34.2506 5.26031 34.2506H2.85121C2.45779 34.2506 2.13696 33.9028 2.13696 33.4704V7.27822C2.13696 6.84788 2.45779 6.49976 2.85121 6.49976H26.8279C27.2212 6.49976 27.5395 6.84788 27.5395 7.27822V11.7658H41.1268C41.52 11.7658 41.841 12.1169 41.841 12.5473ZM34.6889 22.2595H40.4152V13.3258H34.6889V22.2595ZM26.0801 33.4728C26.0801 30.1543 28.5485 27.4558 31.5837 27.4558C34.6138 27.4558 37.0798 30.1543 37.0798 33.4728C37.0798 36.793 34.6138 39.4925 31.5837 39.4925C28.5485 39.4925 26.0801 36.793 26.0801 33.4728ZM27.5057 33.4728C27.5057 35.9331 29.3353 37.9328 31.5837 37.9328C33.8272 37.9328 35.6541 35.9331 35.6541 33.4728C35.6541 31.0139 33.8272 29.0151 31.5837 29.0151C29.3353 29.0151 27.5057 31.0139 27.5057 33.4728ZM6.92656 33.4704C6.92656 30.1517 9.39263 27.4519 12.4279 27.4519C15.4604 27.4519 17.9291 30.1517 17.9291 33.4704C17.9291 36.7915 15.4604 39.4895 12.4279 39.4895C9.39263 39.4895 6.92656 36.7915 6.92656 33.4704ZM8.34991 33.4704C8.34991 35.9301 10.1792 37.9302 12.4279 37.9302C14.6738 37.9302 16.5034 35.9301 16.5034 33.4704C16.5034 31.0115 14.6738 29.0142 12.4279 29.0142C10.1792 29.0142 8.34991 31.0115 8.34991 33.4704ZM19.5928 32.6895H24.4162C24.8095 32.6895 25.1277 33.0388 25.1277 33.4704C25.1277 33.9028 24.8095 34.2506 24.4162 34.2506H19.5928C19.1996 34.2506 18.8814 33.9028 18.8814 33.4704C18.8814 33.0388 19.1996 32.6895 19.5928 32.6895Z" fill="url(#paint0_linear_67209_4)"/>
<path fill-rule="evenodd" clip-rule="evenodd" d="M41.841 12.5473V22.9492C41.8422 22.9666 41.8501 22.9802 41.8579 22.9936C41.8663 23.0079 41.8747 23.0221 41.8747 23.041C41.8747 23.0585 41.8665 23.0719 41.8582 23.0856C41.8503 23.0987 41.8422 23.1121 41.841 23.1295V33.4704C41.841 33.9028 41.52 34.2506 41.1268 34.2506H38.7437C38.3504 34.2506 38.0322 33.9028 38.0322 33.4704C38.0322 33.0388 38.3504 32.6895 38.7437 32.6895H40.4152V23.8197H33.9773C33.584 23.8197 33.2657 23.4707 33.2657 23.041V13.3258H27.5395V27.6449C27.5395 28.0741 27.2212 28.4257 26.8279 28.4257C26.4345 28.4257 26.1137 28.0741 26.1137 27.6449V12.5473V8.05611H3.56276V32.6895H5.26031C5.65357 32.6895 5.97448 33.0388 5.97448 33.4704C5.97448 33.9028 5.65357 34.2506 5.26031 34.2506H2.85121C2.45779 34.2506 2.13696 33.9028 2.13696 33.4704V7.27822C2.13696 6.84788 2.45779 6.49976 2.85121 6.49976H26.8279C27.2212 6.49976 27.5395 6.84788 27.5395 7.27822V11.7658H41.1268C41.52 11.7658 41.841 12.1169 41.841 12.5473ZM34.6889 22.2595H40.4152V13.3258H34.6889V22.2595ZM26.0801 33.4728C26.0801 30.1543 28.5485 27.4558 31.5837 27.4558C34.6138 27.4558 37.0798 30.1543 37.0798 33.4728C37.0798 36.793 34.6138 39.4925 31.5837 39.4925C28.5485 39.4925 26.0801 36.793 26.0801 33.4728ZM27.5057 33.4728C27.5057 35.9331 29.3353 37.9328 31.5837 37.9328C33.8272 37.9328 35.6541 35.9331 35.6541 33.4728C35.6541 31.0139 33.8272 29.0151 31.5837 29.0151C29.3353 29.0151 27.5057 31.0139 27.5057 33.4728ZM6.92656 33.4704C6.92656 30.1517 9.39263 27.4519 12.4279 27.4519C15.4604 27.4519 17.9291 30.1517 17.9291 33.4704C17.9291 36.7915 15.4604 39.4895 12.4279 39.4895C9.39263 39.4895 6.92656 36.7915 6.92656 33.4704ZM8.34991 33.4704C8.34991 35.9301 10.1792 37.9302 12.4279 37.9302C14.6738 37.9302 16.5034 35.9301 16.5034 33.4704C16.5034 31.0115 14.6738 29.0142 12.4279 29.0142C10.1792 29.0142 8.34991 31.0115 8.34991 33.4704ZM19.5928 32.6895H24.4162C24.8095 32.6895 25.1277 33.0388 25.1277 33.4704C25.1277 33.9028 24.8095 34.2506 24.4162 34.2506H19.5928C19.1996 34.2506 18.8814 33.9028 18.8814 33.4704C18.8814 33.0388 19.1996 32.6895 19.5928 32.6895Z" fill="#FF3B4A"/>
<defs>
<linearGradient id="paint0_linear_67209_4" x1="17.6865" y1="-6.41042" x2="-6.6193" y2="30.9963" gradientUnits="userSpaceOnUse">
<stop stop-color="white"/>
<stop offset="1" stop-color="white"/>
</linearGradient>
</defs>
</svg>
