<svg width="33" height="33" viewBox="0 0 33 33" fill="none" xmlns="http://www.w3.org/2000/svg">
<g clip-path="url(#clip0_71303_6)">
<path d="M16.5 0C7.3875 0 0 7.42547 0 16.5848C0 24.8998 6.09375 31.7652 14.034 32.9646V20.9805H9.95175V16.621H14.034V13.7202C14.034 8.91735 16.362 6.80882 20.3333 6.80882C22.2353 6.80882 23.241 6.95054 23.7173 7.01537V10.8208H21.0082C19.3222 10.8208 18.7335 12.4273 18.7335 14.2381V16.621H23.6745L23.004 20.9805H18.7335V33C26.787 31.9016 33 24.9805 33 16.5848C33 7.42547 25.6125 0 16.5 0Z" fill="white"/>
</g>
<defs>
<clipPath id="clip0_71303_6">
<rect width="33" height="33" fill="white"/>
</clipPath>
</defs>
</svg>
