<svg width="33" height="33" viewBox="0 0 33 33" fill="none" xmlns="http://www.w3.org/2000/svg">
<g clip-path="url(#clip0_71303_2)">
<path d="M16.5 0C13.2366 0 10.0465 0.967708 7.3331 2.78075C4.61969 4.59379 2.50484 7.17074 1.256 10.1857C0.00714914 13.2007 -0.319606 16.5183 0.31705 19.719C0.953706 22.9197 2.52518 25.8597 4.83275 28.1673C7.14031 30.4748 10.0803 32.0463 13.281 32.683C16.4817 33.3196 19.7993 32.9929 22.8143 31.744C25.8293 30.4952 28.4062 28.3803 30.2193 25.6669C32.0323 22.9535 33 19.7634 33 16.5C33 12.1239 31.2616 7.92709 28.1673 4.83274C25.0729 1.73839 20.8761 0 16.5 0V0ZM18.5625 16.7578C18.5625 20.2254 16.3943 22.6875 12.8906 22.6875C11.2496 22.6875 9.67579 22.0356 8.51541 20.8752C7.35503 19.7148 6.70313 18.141 6.70313 16.5C6.70313 14.859 7.35503 13.2852 8.51541 12.1248C9.67579 10.9644 11.2496 10.3125 12.8906 10.3125C14.5303 10.3125 15.7833 11.0292 16.8403 12.0166L15.2109 13.6641C14.9159 13.3418 14.5576 13.0839 14.1583 12.9065C13.7591 12.729 13.3275 12.6359 12.8906 12.6328C11.865 12.6328 10.8814 13.0402 10.1561 13.7655C9.43088 14.4907 9.02345 15.4744 9.02345 16.5C9.02345 17.5256 9.43088 18.5093 10.1561 19.2345C10.8814 19.9598 11.865 20.3672 12.8906 20.3672C15.2934 20.3672 16.103 18.6811 16.2422 17.7891H12.6328V15.7266H18.5625C18.5886 16.0698 18.5886 16.4146 18.5625 16.7578ZM26.2969 17.7891H24.2344V19.8516H22.1719V17.7891H20.1094V15.7266H22.1719V13.6641H24.2344V15.7266H26.2969V17.7891Z" fill="white"/>
</g>
<defs>
<clipPath id="clip0_71303_2">
<rect width="33" height="33" fill="white"/>
</clipPath>
</defs>
</svg>
