<svg width="33" height="33" viewBox="0 0 33 33" fill="none" xmlns="http://www.w3.org/2000/svg">
<g clip-path="url(#clip0_71303_4)">
<path d="M16.4999 0.340332C7.5898 0.340332 0.340576 7.58886 0.340576 16.4997C0.340576 25.4105 7.5898 32.659 16.4999 32.659C25.4101 32.659 32.6593 25.4105 32.6593 16.4997C32.6593 7.58886 25.4101 0.340332 16.4999 0.340332ZM11.5819 23.5255H8.77154V12.9868H11.5819V23.5255ZM10.1767 10.879C9.40035 10.879 8.77154 10.2502 8.77154 9.47388C8.77154 8.69753 9.40035 8.06872 10.1767 8.06872C10.9531 8.06872 11.5819 8.69753 11.5819 9.47388C11.5819 10.2502 10.9531 10.879 10.1767 10.879ZM24.9309 23.5255H22.1206V20.0126V18.2561C22.1206 16.9037 21.014 15.7971 19.6615 15.7971C18.3091 15.7971 17.2025 16.9037 17.2025 18.2561V23.5255H14.3922V12.9868H17.2025V14.2627C18.0231 13.4744 19.136 12.9868 20.3641 12.9868C22.8864 12.9868 24.9309 15.0313 24.9309 17.5536V23.5255Z" fill="white"/>
</g>
<defs>
<clipPath id="clip0_71303_4">
<rect width="33" height="33" fill="white"/>
</clipPath>
</defs>
</svg>
