<svg width="45" height="45" viewBox="0 0 45 45" fill="none" xmlns="http://www.w3.org/2000/svg">
<path fill-rule="evenodd" clip-rule="evenodd" d="M43.0375 15.9584C43.0375 15.9264 43.0112 15.9116 43.0058 15.8802C42.998 15.8113 43.0112 15.7411 42.9822 15.6751L38.8629 5.97826C38.7497 5.71362 38.4865 5.5387 38.1944 5.5387H7.79585C7.5036 5.5387 7.24052 5.71362 7.12718 5.97826L3.00522 15.6751C2.97626 15.7411 2.98942 15.8113 2.9789 15.8802C2.97626 15.9116 2.94995 15.9264 2.94995 15.9584C2.94995 15.9726 2.96584 15.9841 2.96584 16.0004C2.97626 16.1585 3.02101 16.3094 3.12903 16.4343L22.4489 38.2671C22.4647 38.2863 22.4937 38.2783 22.5094 38.2978C22.562 38.344 22.6043 38.386 22.6674 38.4198C22.6806 38.4254 22.6831 38.4482 22.7016 38.4538C22.7963 38.4938 22.8963 38.5142 22.9912 38.5142C23.0884 38.5142 23.1885 38.4938 23.2834 38.4538C23.3016 38.4482 23.3044 38.4254 23.3175 38.4168C23.3806 38.386 23.4228 38.344 23.4728 38.2978C23.4912 38.2783 23.5203 38.2863 23.5361 38.2671L42.8559 16.4343C42.9638 16.3094 43.0112 16.1585 43.0217 16.0004C43.0217 15.9841 43.0375 15.9726 43.0375 15.9584ZM27.9212 6.98168L31.4745 15.2373H14.513L18.069 6.98168H27.9212ZM31.464 16.6794L22.9912 35.9867L14.5234 16.6794H31.464ZM12.9389 16.6794L20.4695 33.8505L5.27676 16.6794H12.9389ZM33.0486 16.6794H40.708L25.5152 33.8475L33.0486 16.6794ZM41.2213 15.2373H33.0511L29.4977 6.98168H37.7126L41.2213 15.2373ZM8.27488 6.98168H16.495L12.9389 15.2373H4.76605L8.27488 6.98168Z" fill="url(#paint0_linear_67209_3)"/>
<path fill-rule="evenodd" clip-rule="evenodd" d="M43.0375 15.9584C43.0375 15.9264 43.0112 15.9116 43.0058 15.8802C42.998 15.8113 43.0112 15.7411 42.9822 15.6751L38.8629 5.97826C38.7497 5.71362 38.4865 5.5387 38.1944 5.5387H7.79585C7.5036 5.5387 7.24052 5.71362 7.12718 5.97826L3.00522 15.6751C2.97626 15.7411 2.98942 15.8113 2.9789 15.8802C2.97626 15.9116 2.94995 15.9264 2.94995 15.9584C2.94995 15.9726 2.96584 15.9841 2.96584 16.0004C2.97626 16.1585 3.02101 16.3094 3.12903 16.4343L22.4489 38.2671C22.4647 38.2863 22.4937 38.2783 22.5094 38.2978C22.562 38.344 22.6043 38.386 22.6674 38.4198C22.6806 38.4254 22.6831 38.4482 22.7016 38.4538C22.7963 38.4938 22.8963 38.5142 22.9912 38.5142C23.0884 38.5142 23.1885 38.4938 23.2834 38.4538C23.3016 38.4482 23.3044 38.4254 23.3175 38.4168C23.3806 38.386 23.4228 38.344 23.4728 38.2978C23.4912 38.2783 23.5203 38.2863 23.5361 38.2671L42.8559 16.4343C42.9638 16.3094 43.0112 16.1585 43.0217 16.0004C43.0217 15.9841 43.0375 15.9726 43.0375 15.9584ZM27.9212 6.98168L31.4745 15.2373H14.513L18.069 6.98168H27.9212ZM31.464 16.6794L22.9912 35.9867L14.5234 16.6794H31.464ZM12.9389 16.6794L20.4695 33.8505L5.27676 16.6794H12.9389ZM33.0486 16.6794H40.708L25.5152 33.8475L33.0486 16.6794ZM41.2213 15.2373H33.0511L29.4977 6.98168H37.7126L41.2213 15.2373ZM8.27488 6.98168H16.495L12.9389 15.2373H4.76605L8.27488 6.98168Z" fill="#FF3B4A"/>
<defs>
<linearGradient id="paint0_linear_67209_3" x1="19.3494" y1="-7.95128" x2="-6.15024" y2="29.9368" gradientUnits="userSpaceOnUse">
<stop stop-color="white"/>
<stop offset="1" stop-color="white"/>
</linearGradient>
</defs>
</svg>
