<svg width="44" height="44" viewBox="0 0 44 44" fill="none" xmlns="http://www.w3.org/2000/svg">
<path fill-rule="evenodd" clip-rule="evenodd" d="M22.004 27.5641C18.9446 27.5641 16.4546 25.07 16.4546 21.9988C16.4546 18.9296 18.9446 16.4355 22.004 16.4355C25.0603 16.4355 27.5479 18.9296 27.5479 21.9988C27.5479 25.07 25.0603 27.5641 22.004 27.5641ZM22.004 17.8776C19.7356 17.8776 17.8928 19.727 17.8928 21.9988C17.8928 24.2706 19.7356 26.1217 22.004 26.1217C24.2668 26.1217 26.1096 24.2706 26.1096 21.9988C26.1096 19.727 24.2668 17.8776 22.004 17.8776ZM19.5867 42.0958C19.2579 42.0958 18.9709 41.8696 18.8899 41.5506L17.6527 36.5879C16.6895 36.2895 15.7394 35.8837 14.8206 35.3826L10.4197 38.0324C10.1379 38.2022 9.7752 38.1555 9.54274 37.9258L6.12342 34.4952C5.89105 34.2628 5.84672 33.9002 6.01635 33.6163L8.65793 29.209C8.1673 28.297 7.77307 27.3481 7.48085 26.3706L2.50557 25.1236C2.18725 25.044 1.96021 24.7533 1.96021 24.4257V19.5817C1.96021 19.2493 2.18725 18.9604 2.50557 18.8822L7.45208 17.6438C7.75484 16.6676 8.15939 15.7145 8.6553 14.7993L6.01382 10.3845C5.84418 10.1 5.88864 9.73596 6.1208 9.50271L9.53496 6.07977C9.76991 5.84446 10.1327 5.79593 10.4146 5.97206L14.8154 8.61827C15.7211 8.13163 16.6686 7.73264 17.6421 7.44078L18.8846 2.45087C18.9655 2.13003 19.2527 1.90417 19.5816 1.90417H24.4131C24.7419 1.90417 25.0316 2.13003 25.11 2.45087L26.3473 7.41742C27.3183 7.72049 28.2683 8.12485 29.1766 8.6147L33.5826 5.96348C33.8593 5.80156 34.2248 5.84446 34.4598 6.07445L37.8738 9.49765C38.1088 9.7309 38.1531 10.0938 37.9835 10.38L35.3419 14.7993C35.8274 15.705 36.2216 16.6546 36.5139 17.6254L41.4942 18.8772C41.8152 18.9554 42.0398 19.246 42.0398 19.5763V24.4165C42.0398 24.7459 41.8152 25.0372 41.4942 25.1144L36.5139 26.3656C36.2216 27.346 35.8274 28.2949 35.3445 29.1948L37.9887 33.6108C38.1583 33.8967 38.114 34.2598 37.8791 34.4928L34.4649 37.9234C34.2301 38.1555 33.8671 38.1951 33.5878 38.0324L29.1819 35.3802C28.2735 35.8772 27.3234 36.2779 26.3499 36.5846L25.1178 41.5476C25.0368 41.8673 24.7498 42.0925 24.4182 42.0925L19.5867 42.0958ZM14.8077 33.8289C14.9303 33.8289 15.0554 33.8603 15.1676 33.9254C16.2223 34.5351 17.3264 35.0031 18.4462 35.3154C18.6941 35.3855 18.8846 35.5877 18.9498 35.8384L20.1506 40.6534L23.8571 40.6504L25.0552 35.8334C25.1178 35.585 25.3083 35.3855 25.5563 35.3154C26.6918 34.9957 27.7933 34.5271 28.8348 33.9236C29.0618 33.7898 29.3385 33.7943 29.5631 33.9268L33.8438 36.507L36.4669 33.8718L33.896 29.5828C33.7601 29.3567 33.7601 29.0764 33.8881 28.8488C34.4806 27.8211 34.9348 26.7235 35.2428 25.5795C35.3107 25.3281 35.5091 25.1328 35.7621 25.07L40.6014 23.8526V20.1391L35.7621 18.9234C35.5091 18.8618 35.3107 18.6656 35.2428 18.4128C34.9373 17.2797 34.4806 16.1768 33.8881 15.1406C33.7601 14.9168 33.7628 14.6373 33.896 14.4106L36.4616 10.1207L33.841 7.49319L29.5604 10.0686C29.3385 10.2039 29.0618 10.2101 28.8322 10.0746C27.788 9.47134 26.6865 9.00366 25.5538 8.68308C25.3058 8.6147 25.1152 8.41697 25.0525 8.16568L23.8519 3.34627H20.1455L18.9367 8.19411C18.8743 8.44601 18.6784 8.64726 18.428 8.71445C17.2925 9.02408 16.1935 9.48168 15.16 10.076C14.9355 10.2101 14.6587 10.2072 14.4317 10.0686L10.1562 7.49495L7.53554 10.1264L10.1014 14.4106C10.2371 14.6373 10.2371 14.9168 10.1067 15.1429C9.50365 16.1961 9.03383 17.3037 8.71791 18.4362C8.64744 18.6881 8.44908 18.879 8.19847 18.942L3.39847 20.1447V23.86L8.23244 25.0751C8.48567 25.1378 8.68399 25.3341 8.75184 25.586C9.05976 26.7217 9.51414 27.8234 10.1119 28.8609C10.2423 29.0882 10.2397 29.3685 10.1039 29.5926L7.53817 33.8768L10.1613 36.5094L14.4369 33.9334C14.5518 33.8638 14.6796 33.8289 14.8077 33.8289Z" fill="url(#paint0_linear_67209_2)"/>
<path fill-rule="evenodd" clip-rule="evenodd" d="M22.004 27.5641C18.9446 27.5641 16.4546 25.07 16.4546 21.9988C16.4546 18.9296 18.9446 16.4355 22.004 16.4355C25.0603 16.4355 27.5479 18.9296 27.5479 21.9988C27.5479 25.07 25.0603 27.5641 22.004 27.5641ZM22.004 17.8776C19.7356 17.8776 17.8928 19.727 17.8928 21.9988C17.8928 24.2706 19.7356 26.1217 22.004 26.1217C24.2668 26.1217 26.1096 24.2706 26.1096 21.9988C26.1096 19.727 24.2668 17.8776 22.004 17.8776ZM19.5867 42.0958C19.2579 42.0958 18.9709 41.8696 18.8899 41.5506L17.6527 36.5879C16.6895 36.2895 15.7394 35.8837 14.8206 35.3826L10.4197 38.0324C10.1379 38.2022 9.7752 38.1555 9.54274 37.9258L6.12342 34.4952C5.89105 34.2628 5.84672 33.9002 6.01635 33.6163L8.65793 29.209C8.1673 28.297 7.77307 27.3481 7.48085 26.3706L2.50557 25.1236C2.18725 25.044 1.96021 24.7533 1.96021 24.4257V19.5817C1.96021 19.2493 2.18725 18.9604 2.50557 18.8822L7.45208 17.6438C7.75484 16.6676 8.15939 15.7145 8.6553 14.7993L6.01382 10.3845C5.84418 10.1 5.88864 9.73596 6.1208 9.50271L9.53496 6.07977C9.76991 5.84446 10.1327 5.79593 10.4146 5.97206L14.8154 8.61827C15.7211 8.13163 16.6686 7.73264 17.6421 7.44078L18.8846 2.45087C18.9655 2.13003 19.2527 1.90417 19.5816 1.90417H24.4131C24.7419 1.90417 25.0316 2.13003 25.11 2.45087L26.3473 7.41742C27.3183 7.72049 28.2683 8.12485 29.1766 8.6147L33.5826 5.96348C33.8593 5.80156 34.2248 5.84446 34.4598 6.07445L37.8738 9.49765C38.1088 9.7309 38.1531 10.0938 37.9835 10.38L35.3419 14.7993C35.8274 15.705 36.2216 16.6546 36.5139 17.6254L41.4942 18.8772C41.8152 18.9554 42.0398 19.246 42.0398 19.5763V24.4165C42.0398 24.7459 41.8152 25.0372 41.4942 25.1144L36.5139 26.3656C36.2216 27.346 35.8274 28.2949 35.3445 29.1948L37.9887 33.6108C38.1583 33.8967 38.114 34.2598 37.8791 34.4928L34.4649 37.9234C34.2301 38.1555 33.8671 38.1951 33.5878 38.0324L29.1819 35.3802C28.2735 35.8772 27.3234 36.2779 26.3499 36.5846L25.1178 41.5476C25.0368 41.8673 24.7498 42.0925 24.4182 42.0925L19.5867 42.0958ZM14.8077 33.8289C14.9303 33.8289 15.0554 33.8603 15.1676 33.9254C16.2223 34.5351 17.3264 35.0031 18.4462 35.3154C18.6941 35.3855 18.8846 35.5877 18.9498 35.8384L20.1506 40.6534L23.8571 40.6504L25.0552 35.8334C25.1178 35.585 25.3083 35.3855 25.5563 35.3154C26.6918 34.9957 27.7933 34.5271 28.8348 33.9236C29.0618 33.7898 29.3385 33.7943 29.5631 33.9268L33.8438 36.507L36.4669 33.8718L33.896 29.5828C33.7601 29.3567 33.7601 29.0764 33.8881 28.8488C34.4806 27.8211 34.9348 26.7235 35.2428 25.5795C35.3107 25.3281 35.5091 25.1328 35.7621 25.07L40.6014 23.8526V20.1391L35.7621 18.9234C35.5091 18.8618 35.3107 18.6656 35.2428 18.4128C34.9373 17.2797 34.4806 16.1768 33.8881 15.1406C33.7601 14.9168 33.7628 14.6373 33.896 14.4106L36.4616 10.1207L33.841 7.49319L29.5604 10.0686C29.3385 10.2039 29.0618 10.2101 28.8322 10.0746C27.788 9.47134 26.6865 9.00366 25.5538 8.68308C25.3058 8.6147 25.1152 8.41697 25.0525 8.16568L23.8519 3.34627H20.1455L18.9367 8.19411C18.8743 8.44601 18.6784 8.64726 18.428 8.71445C17.2925 9.02408 16.1935 9.48168 15.16 10.076C14.9355 10.2101 14.6587 10.2072 14.4317 10.0686L10.1562 7.49495L7.53554 10.1264L10.1014 14.4106C10.2371 14.6373 10.2371 14.9168 10.1067 15.1429C9.50365 16.1961 9.03383 17.3037 8.71791 18.4362C8.64744 18.6881 8.44908 18.879 8.19847 18.942L3.39847 20.1447V23.86L8.23244 25.0751C8.48567 25.1378 8.68399 25.3341 8.75184 25.586C9.05976 26.7217 9.51414 27.8234 10.1119 28.8609C10.2423 29.0882 10.2397 29.3685 10.1039 29.5926L7.53817 33.8768L10.1613 36.5094L14.4369 33.9334C14.5518 33.8638 14.6796 33.8289 14.8077 33.8289Z" fill="#FF3B4A"/>
<defs>
<linearGradient id="paint0_linear_67209_2" x1="22.4555" y1="-17.7349" x2="-17.7334" y2="21.4311" gradientUnits="userSpaceOnUse">
<stop stop-color="white"/>
<stop offset="1" stop-color="white"/>
</linearGradient>
</defs>
</svg>
