<svg width="33" height="33" viewBox="0 0 33 33" fill="none" xmlns="http://www.w3.org/2000/svg">
<g clip-path="url(#clip0_71303_8)">
<path fill-rule="evenodd" clip-rule="evenodd" d="M-0.305542 16.4999C-0.305542 7.21818 7.21831 -0.305664 16.5 -0.305664C25.7817 -0.305664 33.3056 7.21818 33.3056 16.4999C33.3056 25.7816 25.7817 33.3054 16.5 33.3054C7.21831 33.3054 -0.305542 25.7816 -0.305542 16.4999ZM24.0625 11.4582C24.9036 11.3557 25.8422 11.0473 26.5833 10.7188C26.5119 10.8256 26.4442 10.9287 26.3787 11.0284C25.9372 11.7002 25.596 12.2196 24.8877 12.7186C25.4649 23.6339 13.9699 27.647 6.41668 23.2028C7.15108 23.2885 10.9399 23.2465 13.1389 21.5416C11.3281 21.5063 8.68375 20.6467 8.15774 19.0207C9.44146 19.0207 9.97229 18.8055 10.3092 18.6688C10.3975 18.633 10.4724 18.6027 10.5441 18.5829C8.65266 18.2065 7.25696 16.8562 7.25696 14.8672V14.8193C7.81574 15.121 9.09969 15.6386 9.77779 15.6596C9.3837 15.3983 5.92848 12.9766 7.82247 9.77767C9.86182 12.259 13.1389 14.8193 16.5 14.8193V13.1388C16.5 8.73152 21.3644 7.93578 23.3962 10.0903C24.339 9.90875 25.7842 9.40711 26.5833 8.93739C26.275 9.89363 24.9179 10.9507 24.0625 11.4582Z" fill="white"/>
</g>
<defs>
<clipPath id="clip0_71303_8">
<rect width="33" height="33" fill="white"/>
</clipPath>
</defs>
</svg>
