<svg width="45" height="45" viewBox="0 0 45 45" fill="none" xmlns="http://www.w3.org/2000/svg">
<path fill-rule="evenodd" clip-rule="evenodd" d="M40.0537 16.566C39.1126 13.7522 37.7228 11.2096 35.9195 9.00736C34.1272 6.8188 31.9812 5.04576 29.5388 3.73776C29.2642 3.59184 28.935 3.64364 28.7094 3.87628L13.0215 19.8379L11.21 21.6814C11.1121 21.7684 11.0278 21.8847 10.9761 22.0259C10.9681 22.0466 10.9598 22.0744 10.9516 22.099L6.7332 34.3089L4.93276 39.5255C4.82938 39.8206 4.88924 40.1518 5.0797 40.3884C5.22365 40.5645 5.42507 40.6574 5.63164 40.6574C5.69972 40.6574 5.77044 40.6482 5.83848 40.6243L10.6633 39.1002L22.0104 35.513C22.0811 35.4914 22.1519 35.4562 22.2172 35.41C22.2525 35.3824 22.2878 35.3523 22.3204 35.3221L24.1727 33.4369L39.8578 17.4744C40.0835 17.2447 40.1598 16.8842 40.0537 16.566ZM7.83205 35.7723C7.86189 35.7942 7.8973 35.8072 7.92741 35.8247C8.24814 36.0493 8.5474 36.2974 8.79485 36.6034C9.04234 36.906 9.23822 37.2588 9.40957 37.6332C9.4287 37.667 9.43669 37.709 9.45029 37.7466L6.86921 38.5638L7.83205 35.7723ZM21.4366 33.9578L10.9299 37.2792C10.9 37.207 10.8484 37.1528 10.8157 37.0821C10.5736 36.4951 10.2826 35.9428 9.9018 35.476C9.51833 35.0104 9.05052 34.6404 8.5474 34.3163C8.48482 34.2757 8.44673 34.213 8.38415 34.1766L12.3061 22.8251L13.4811 21.6361L14.4303 22.7925L22.606 32.7676L21.4366 33.9578ZM23.7129 31.6405L21.3386 28.7444L33.809 16.061C33.9694 15.894 34.0509 15.6688 34.0509 15.4391C34.0509 15.242 33.9885 15.0392 33.8552 14.8796C33.5778 14.5393 33.1018 14.5171 32.797 14.8267L20.3269 27.511L19.84 26.9137L17.9714 24.6295L30.4364 11.9466C30.5995 11.7785 30.6813 11.5544 30.6813 11.3242C30.6813 11.127 30.6158 10.9248 30.4854 10.7641C30.2052 10.4255 29.7292 10.4045 29.4246 10.7123L16.957 23.3984L14.588 20.5048L29.3403 5.49212C31.421 6.67936 33.2622 8.23632 34.8125 10.1372C36.3737 12.0396 37.5976 14.2214 38.468 16.6269L23.7129 31.6405Z" fill="url(#paint0_linear_67209_5)"/>
<path fill-rule="evenodd" clip-rule="evenodd" d="M40.0537 16.566C39.1126 13.7522 37.7228 11.2096 35.9195 9.00736C34.1272 6.8188 31.9812 5.04576 29.5388 3.73776C29.2642 3.59184 28.935 3.64364 28.7094 3.87628L13.0215 19.8379L11.21 21.6814C11.1121 21.7684 11.0278 21.8847 10.9761 22.0259C10.9681 22.0466 10.9598 22.0744 10.9516 22.099L6.7332 34.3089L4.93276 39.5255C4.82938 39.8206 4.88924 40.1518 5.0797 40.3884C5.22365 40.5645 5.42507 40.6574 5.63164 40.6574C5.69972 40.6574 5.77044 40.6482 5.83848 40.6243L10.6633 39.1002L22.0104 35.513C22.0811 35.4914 22.1519 35.4562 22.2172 35.41C22.2525 35.3824 22.2878 35.3523 22.3204 35.3221L24.1727 33.4369L39.8578 17.4744C40.0835 17.2447 40.1598 16.8842 40.0537 16.566ZM7.83205 35.7723C7.86189 35.7942 7.8973 35.8072 7.92741 35.8247C8.24814 36.0493 8.5474 36.2974 8.79485 36.6034C9.04234 36.906 9.23822 37.2588 9.40957 37.6332C9.4287 37.667 9.43669 37.709 9.45029 37.7466L6.86921 38.5638L7.83205 35.7723ZM21.4366 33.9578L10.9299 37.2792C10.9 37.207 10.8484 37.1528 10.8157 37.0821C10.5736 36.4951 10.2826 35.9428 9.9018 35.476C9.51833 35.0104 9.05052 34.6404 8.5474 34.3163C8.48482 34.2757 8.44673 34.213 8.38415 34.1766L12.3061 22.8251L13.4811 21.6361L14.4303 22.7925L22.606 32.7676L21.4366 33.9578ZM23.7129 31.6405L21.3386 28.7444L33.809 16.061C33.9694 15.894 34.0509 15.6688 34.0509 15.4391C34.0509 15.242 33.9885 15.0392 33.8552 14.8796C33.5778 14.5393 33.1018 14.5171 32.797 14.8267L20.3269 27.511L19.84 26.9137L17.9714 24.6295L30.4364 11.9466C30.5995 11.7785 30.6813 11.5544 30.6813 11.3242C30.6813 11.127 30.6158 10.9248 30.4854 10.7641C30.2052 10.4255 29.7292 10.4045 29.4246 10.7123L16.957 23.3984L14.588 20.5048L29.3403 5.49212C31.421 6.67936 33.2622 8.23632 34.8125 10.1372C36.3737 12.0396 37.5976 14.2214 38.468 16.6269L23.7129 31.6405Z" fill="#FF3B4A"/>
<defs>
<linearGradient id="paint0_linear_67209_5" x1="21.6531" y1="-13.9635" x2="-13.6281" y2="21.2967" gradientUnits="userSpaceOnUse">
<stop stop-color="white"/>
<stop offset="1" stop-color="white"/>
</linearGradient>
</defs>
</svg>
